<?xml version="1.0" standalone="yes"?>

<svg version="1.1" viewBox="0.0 0.0 960.0 540.0" fill="none" stroke="none" stroke-linecap="square" stroke-miterlimit="10" xmlns="http://www.w3.org/2000/svg" xmlns:xlink="http://www.w3.org/1999/xlink"><clipPath id="p.0"><path d="m0 0l960.0 0l0 540.0l-960.0 0l0 -540.0z" clip-rule="nonzero"></path></clipPath><g clip-path="url(#p.0)"><path fill="#ffffff" d="m0 0l960.0 0l0 540.0l-960.0 0z" fill-rule="evenodd"></path><path fill="#000000" fill-opacity="0.0" d="m469.69382 0l0 478.83466" fill-rule="evenodd"></path><path stroke="#cc0000" stroke-width="2.0" stroke-linejoin="round" stroke-linecap="butt" d="m469.69382 12.0l0 454.83466" fill-rule="evenodd"></path><path fill="#cc0000" stroke="#cc0000" stroke-width="2.0" stroke-linecap="butt" d="m472.99728 12.0l-3.3034668 -9.076196l-3.3034668 9.076196z" fill-rule="evenodd"></path><path fill="#cc0000" stroke="#cc0000" stroke-width="2.0" stroke-linecap="butt" d="m466.39035 466.83466l3.3034668 9.076172l3.3034668 -9.076172z" fill-rule="evenodd"></path><path fill="#000000" fill-opacity="0.0" d="m739.6923 107.41529l-540.0 0" fill-rule="evenodd"></path><path stroke="#cc0000" stroke-width="2.0" stroke-linejoin="round" stroke-linecap="butt" d="m727.6923 107.41529l-516.0 0" fill-rule="evenodd"></path><path fill="#cc0000" stroke="#cc0000" stroke-width="2.0" stroke-linecap="butt" d="m727.6923 110.71876l9.076233 -3.3034668l-9.076233 -3.3034592z" fill-rule="evenodd"></path><path fill="#cc0000" stroke="#cc0000" stroke-width="2.0" stroke-linecap="butt" d="m211.69234 104.11183l-9.076187 3.3034592l9.076187 3.3034668z" fill-rule="evenodd"></path><path fill="#000000" fill-opacity="0.0" d="m590.37836 38.105473l0 338.96063" fill-rule="evenodd"></path><path stroke="#0000ff" stroke-width="2.0" stroke-linejoin="round" stroke-linecap="butt" d="m590.3784 50.10547l0 314.96063" fill-rule="evenodd"></path><path fill="#0000ff" stroke="#0000ff" stroke-width="2.0" stroke-linecap="butt" d="m593.6819 50.105473l-3.3034668 -9.076199l-3.3034668 9.076199z" fill-rule="evenodd"></path><path fill="#0000ff" stroke="#0000ff" stroke-width="2.0" stroke-linecap="butt" d="m587.07495 365.0661l3.3034668 9.076202l3.3034668 -9.076202z" fill-rule="evenodd"></path><path fill="#000000" fill-opacity="0.0" d="m759.86115 143.87659l-338.96063 0" fill-rule="evenodd"></path><path stroke="#0000ff" stroke-width="2.0" stroke-linejoin="round" stroke-linecap="butt" d="m747.86115 143.87659l-314.96063 0" fill-rule="evenodd"></path><path fill="#0000ff" stroke="#0000ff" stroke-width="2.0" stroke-linecap="butt" d="m747.86115 147.18005l9.076172 -3.3034668l-9.076172 -3.3034668z" fill-rule="evenodd"></path><path fill="#0000ff" stroke="#0000ff" stroke-width="2.0" stroke-linecap="butt" d="m432.9005 140.57312l-9.076202 3.3034668l9.076202 3.3034668z" fill-rule="evenodd"></path><path fill="#eeeeee" d="m590.37756 143.85403l128.85034 0l0 127.46457l-128.85034 0z" fill-rule="evenodd"></path><path stroke="#595959" stroke-width="1.0" stroke-linejoin="round" stroke-linecap="butt" stroke-dasharray="1.0,3.0" d="m590.37756 143.85403l128.85034 0l0 127.46457l-128.85034 0z" fill-rule="evenodd"></path><path fill="#000000" fill-opacity="0.0" d="m560.1755 148.82198l49.259888 0l0 62.425186l-49.259888 0z" fill-rule="evenodd"></path><path fill="#000000" d="m574.53485 175.74197l-5.28125 -13.59375l1.953125 0l3.53125 9.875q0.4375 1.1875 0.71875 2.21875q0.3125 -1.109375 0.734375 -2.21875l3.671875 -9.875l1.84375 0l-5.328125 13.59375l-1.84375 0z" fill-rule="nonzero"></path><path fill="#000000" d="m585.43616 143.87567l0 0c0 -2.7309723 2.2138672 -4.9448853 4.9448853 -4.9448853l0 0c1.3114624 0 2.5692139 0.52098083 3.496521 1.4483337c0.92736816 0.92733765 1.4483643 2.185089 1.4483643 3.4965515l0 0c0 2.7309875 -2.2139282 4.9448853 -4.9448853 4.9448853l0 0c-2.731018 0 -4.9448853 -2.2138977 -4.9448853 -4.9448853z" fill-rule="evenodd"></path><path stroke="#595959" stroke-width="1.0" stroke-linejoin="round" stroke-linecap="butt" d="m585.43616 143.87567l0 0c0 -2.7309723 2.2138672 -4.9448853 4.9448853 -4.9448853l0 0c1.3114624 0 2.5692139 0.52098083 3.496521 1.4483337c0.92736816 0.92733765 1.4483643 2.185089 1.4483643 3.4965515l0 0c0 2.7309875 -2.2139282 4.9448853 -4.9448853 4.9448853l0 0c-2.731018 0 -4.9448853 -2.2138977 -4.9448853 -4.9448853z" fill-rule="evenodd"></path><path fill="#000000" d="m714.2489 270.0004l0 0c0 -2.7309875 2.2139282 -4.9448853 4.9448853 -4.9448853l0 0c1.3114624 0 2.5692139 0.5209656 3.496582 1.4483032c0.9273071 0.92736816 1.4483032 2.1851196 1.4483032 3.496582l0 0c0 2.7309875 -2.2139282 4.9448853 -4.9448853 4.9448853l0 0c-2.730957 0 -4.9448853 -2.2138977 -4.9448853 -4.9448853z" fill-rule="evenodd"></path><path stroke="#595959" stroke-width="1.0" stroke-linejoin="round" stroke-linecap="butt" d="m714.2489 270.0004l0 0c0 -2.7309875 2.2139282 -4.9448853 4.9448853 -4.9448853l0 0c1.3114624 0 2.5692139 0.5209656 3.496582 1.4483032c0.9273071 0.92736816 1.4483032 2.1851196 1.4483032 3.496582l0 0c0 2.7309875 -2.2139282 4.9448853 -4.9448853 4.9448853l0 0c-2.730957 0 -4.9448853 -2.2138977 -4.9448853 -4.9448853z" fill-rule="evenodd"></path><path fill="#000000" fill-opacity="0.0" d="m727.22925 250.61629l49.259827 0l0 62.425186l-49.259827 0z" fill-rule="evenodd"></path><path fill="#000000" d="m737.9949 277.5363l0 -13.59375l1.8125 0l0 13.59375l-1.8125 0z" fill-rule="nonzero"></path><path fill="#000000" d="m464.74716 107.41448l0 0c0 -2.73098 2.2138977 -4.9448853 4.9448853 -4.9448853l0 0c1.3114624 0 2.5692139 0.52098083 3.4965515 1.4483261c0.92733765 0.9273453 1.4483337 2.1850967 1.4483337 3.4965591l0 0c0 2.73098 -2.2138977 4.9448776 -4.9448853 4.9448776l0 0c-2.7309875 0 -4.9448853 -2.2138977 -4.9448853 -4.9448776z" fill-rule="evenodd"></path><path stroke="#595959" stroke-width="1.0" stroke-linejoin="round" stroke-linecap="butt" d="m464.74716 107.41448l0 0c0 -2.73098 2.2138977 -4.9448853 4.9448853 -4.9448853l0 0c1.3114624 0 2.5692139 0.52098083 3.4965515 1.4483261c0.92733765 0.9273453 1.4483337 2.1850967 1.4483337 3.4965591l0 0c0 2.73098 -2.2138977 4.9448776 -4.9448853 4.9448776l0 0c-2.7309875 0 -4.9448853 -2.2138977 -4.9448853 -4.9448776z" fill-rule="evenodd"></path><path fill="#000000" fill-opacity="0.0" d="m469.69208 60.988457l49.259827 0l0 62.425194l-49.259827 0z" fill-rule="evenodd"></path><path fill="#000000" d="m479.61395 81.283455q0 -3.390625 1.8125 -5.296875q1.828125 -1.921875 4.703125 -1.921875q1.875 0 3.390625 0.90625q1.515625 0.890625 2.296875 2.5q0.796875 1.609375 0.796875 3.65625q0 2.0625 -0.84375 3.703125q-0.828125 1.625 -2.359375 2.46875q-1.53125 0.84375 -3.296875 0.84375q-1.921875 0 -3.4375 -0.921875q-1.5 -0.9375 -2.28125 -2.53125q-0.78125 -1.609375 -0.78125 -3.40625zm1.859375 0.03125q0 2.453125 1.3125 3.875q1.328125 1.40625 3.3125 1.40625q2.03125 0 3.34375 -1.421875q1.3125 -1.4375 1.3125 -4.0625q0 -1.65625 -0.5625 -2.890625q-0.546875 -1.234375 -1.640625 -1.921875q-1.078125 -0.6875 -2.421875 -0.6875q-1.90625 0 -3.28125 1.3125q-1.375 1.3125 -1.375 4.390625z" fill-rule="nonzero"></path><path fill="#000000" fill-opacity="0.0" d="m735.22833 83.98163l49.259827 0l0 46.866135l-49.259827 0z" fill-rule="evenodd"></path><path fill="#000000" d="m750.3221 105.87038l0 3.890625q0 0.28125 -0.109375 0.40625q-0.109375 0.109375 -0.28125 0.109375q-0.171875 0 -0.28125 -0.109375q-0.109375 -0.125 -0.109375 -0.40625l0 -3.890625l-3.453125 0q-0.28125 0 -0.40625 -0.109375q-0.109375 -0.109375 -0.109375 -0.28125q0 -0.1875 0.109375 -0.28125q0.125 -0.109375 0.40625 -0.109375l3.453125 0l0 -3.875q0 -0.28125 0.109375 -0.40625q0.109375 -0.125 0.28125 -0.125q0.171875 0 0.28125 0.125q0.109375 0.125 0.109375 0.40625l0 3.875l3.453125 0q0.28125 0 0.390625 0.109375q0.125 0.09375 0.125 0.28125q0 0.171875 -0.125 0.28125q-0.109375 0.109375 -0.390625 0.109375l-3.453125 0zm11.54248 0.828125l3.578125 3.421875q0.34375 0 0.4375 0.03125q0.09375 0.03125 0.15625 0.140625q0.078125 0.09375 0.078125 0.21875q0 0.171875 -0.125 0.28125q-0.109375 0.109375 -0.40625 0.109375l-2.5 0q-0.296875 0 -0.421875 -0.109375q-0.109375 -0.109375 -0.109375 -0.28125q0 -0.171875 0.109375 -0.28125q0.125 -0.109375 0.421875 -0.109375l1.28125 0l-3.03125 -2.90625l-3.015625 2.90625l1.296875 0q0.28125 0 0.40625 0.109375q0.125 0.109375 0.125 0.28125q0 0.171875 -0.125 0.28125q-0.125 0.109375 -0.40625 0.109375l-2.53125 0q-0.28125 0 -0.40625 -0.109375q-0.109375 -0.109375 -0.109375 -0.28125q0 -0.125 0.0625 -0.21875q0.078125 -0.109375 0.15625 -0.140625q0.09375 -0.03125 0.453125 -0.03125l3.5625 -3.421875l-3.171875 -3.046875q-0.328125 0 -0.421875 -0.03125q-0.078125 -0.03125 -0.15625 -0.140625q-0.0625 -0.109375 -0.0625 -0.21875q0 -0.171875 0.109375 -0.28125q0.125 -0.109375 0.421875 -0.109375l2.125 0q0.28125 0 0.390625 0.109375q0.125 0.109375 0.125 0.28125q0 0.171875 -0.125 0.28125q-0.109375 0.109375 -0.390625 0.109375l-0.9375 0l2.625 2.53125l2.640625 -2.53125l-0.921875 0q-0.28125 0 -0.40625 -0.109375q-0.125 -0.109375 -0.125 -0.28125q0 -0.171875 0.125 -0.28125q0.125 -0.109375 0.40625 -0.109375l2.125 0q0.28125 0 0.390625 0.109375q0.125 0.109375 0.125 0.28125q0 0.109375 -0.078125 0.21875q-0.0625 0.109375 -0.15625 0.140625q-0.078125 0.03125 -0.40625 0.03125l-3.1875 3.046875z" fill-rule="nonzero"></path><path fill="#000000" fill-opacity="0.0" d="m445.063 478.83466l49.259857 0l0 46.86615l-49.259857 0z" fill-rule="evenodd"></path><path fill="#000000" d="m460.15674 500.7234l0 3.890625q0 0.28125 -0.109375 0.40625q-0.109375 0.109375 -0.28125 0.109375q-0.171875 0 -0.28125 -0.109375q-0.109375 -0.125 -0.109375 -0.40625l0 -3.890625l-3.453125 0q-0.28125 0 -0.40625 -0.109375q-0.109375 -0.109375 -0.109375 -0.28125q0 -0.1875 0.109375 -0.28125q0.125 -0.109375 0.40625 -0.109375l3.453125 0l0 -3.875q0 -0.28125 0.109375 -0.40625q0.109375 -0.125 0.28125 -0.125q0.171875 0 0.28125 0.125q0.109375 0.125 0.109375 0.40625l0 3.875l3.453125 0q0.28125 0 0.390625 0.109375q0.125 0.09375 0.125 0.28125q0 0.171875 -0.125 0.28125q-0.109375 0.109375 -0.390625 0.109375l-3.453125 0zm11.058105 5.03125l-3.609375 -7.25l-0.234375 0q-0.28125 0 -0.40625 -0.109375q-0.125 -0.109375 -0.125 -0.28125q0 -0.109375 0.0625 -0.203125q0.0625 -0.109375 0.15625 -0.140625q0.109375 -0.046875 0.3125 -0.046875l2.125 0q0.28125 0 0.40625 0.109375q0.125 0.109375 0.125 0.28125q0 0.171875 -0.125 0.28125q-0.125 0.109375 -0.40625 0.109375l-1.046875 0l3.1875 6.390625l3.140625 -6.390625l-1.0625 0q-0.265625 0 -0.390625 -0.109375q-0.125 -0.109375 -0.125 -0.28125q0 -0.171875 0.125 -0.28125q0.125 -0.109375 0.390625 -0.109375l2.125 0q0.296875 0 0.40625 0.109375q0.125 0.109375 0.125 0.28125q0 0.125 -0.078125 0.234375q-0.0625 0.09375 -0.15625 0.125q-0.09375 0.03125 -0.515625 0.03125l-4.9375 10.046875l1.203125 0q0.28125 0 0.40625 0.109375q0.125 0.109375 0.125 0.28125q0 0.171875 -0.125 0.28125q-0.125 0.109375 -0.40625 0.109375l-4.484375 0q-0.28125 0 -0.40625 -0.109375q-0.109375 -0.09375 -0.109375 -0.28125q0 -0.171875 0.109375 -0.28125q0.125 -0.109375 0.40625 -0.109375l2.4375 0l1.375 -2.796875z" fill-rule="nonzero"></path></g></svg>

